Coordinates
version=1
nRows=65
nColumns=12
inDegrees=yes

Units are S.I. units (second, meters, Newtons, ...)
Angles are in degrees

endheader
time	SC_y	SC_z	SC_x	AC_y	AC_z	AC_x	GH_y	GH_z	GH_yy	EL_x	PS_y
       0.0              -35.61       -0.03469          21.55          55.37         -2.701         -8.979          134.8         -9.728         -101.7          62.47          45.15
   0.04051              -35.61       -0.03507          21.56          55.37           -2.7         -8.979          134.8         -9.729         -101.7          62.46          45.16
   0.08102               -35.6       -0.03548          21.56          55.36           -2.7         -8.979          134.8          -9.73         -101.7          62.46          45.17
    0.1215               -35.6       -0.03592          21.57          55.36         -2.699         -8.979          134.8          -9.73         -101.7          62.45          45.19
     0.162               -35.6       -0.03638          21.57          55.36         -2.697          -8.98          134.8         -9.731         -101.7          62.44           45.2
    0.2025               -35.6       -0.03688          21.58          55.36         -2.696          -8.98          134.8         -9.732         -101.6          62.44          45.22
     0.243               -35.6        -0.0374          21.59          55.35         -2.695          -8.98          134.8         -9.733         -101.6          62.43          45.23
    0.2836               -35.6       -0.03797           21.6          55.35         -2.694          -8.98          134.8         -9.734         -101.6          62.42          45.25
    0.3241              -35.59       -0.03857           21.6          55.34         -2.692         -8.981          134.8         -9.735         -101.6          62.41          45.27
    0.3646              -35.59       -0.03922          21.61          55.34         -2.691         -8.981          134.8         -9.736         -101.5           62.4          45.29
    0.4051              -35.59       -0.03992          21.62          55.34         -2.689         -8.981          134.7         -9.737         -101.5          62.39          45.31
    0.4456              -35.59       -0.04066          21.63          55.33         -2.688         -8.981          134.7         -9.739         -101.5          62.38          45.34
    0.4861              -35.58       -0.04147          21.64          55.33         -2.686         -8.982          134.7          -9.74         -101.5          62.37          45.37
    0.5266              -35.58       -0.04234          21.66          55.32         -2.684         -8.982          134.7         -9.741         -101.4          62.36          45.39
    0.5671              -35.58       -0.04329          21.67          55.31         -2.682         -8.983          134.7         -9.743         -101.4          62.34          45.42
    0.6076              -35.57       -0.04431          21.68          55.31         -2.679         -8.983          134.7         -9.745         -101.3          62.33          45.46
    0.6481              -35.57       -0.04542           21.7           55.3         -2.677         -8.984          134.6         -9.747         -101.3          62.31          45.49
    0.6886              -35.57       -0.04664          21.71          55.29         -2.674         -8.984          134.6         -9.749         -101.2           62.3          45.53
    0.7291              -35.56       -0.04796          21.73          55.28         -2.671         -8.985          134.6         -9.751         -101.2          62.28          45.58
    0.7697              -35.56       -0.04941          21.75          55.27         -2.668         -8.985          134.6         -9.753         -101.1          62.26          45.62
    0.8102              -35.55         -0.051          21.77          55.26         -2.664         -8.986          134.5         -9.756         -101.1          62.23          45.67
    0.8507              -35.54       -0.05275           21.8          55.25          -2.66         -8.987          134.5         -9.759         -101.0          62.21          45.73
    0.8912              -35.54       -0.05468          21.82          55.24         -2.656         -8.988          134.5         -9.762         -100.9          62.18          45.79
    0.9317              -35.53       -0.05683          21.85          55.22         -2.651         -8.989          134.4         -9.766         -100.8          62.15          45.86
    0.9722              -35.52       -0.05921          21.89          55.21         -2.645          -8.99          134.4          -9.77         -100.7          62.12          45.94
     1.013              -35.51       -0.06187          21.92          55.19         -2.639         -8.991          134.3         -9.774         -100.6          62.08          46.03
     1.053               -35.5       -0.06485          21.96          55.17         -2.632         -8.992          134.3         -9.779         -100.5          62.04          46.12
     1.094              -35.49       -0.06819          22.01          55.15         -2.625         -8.994          134.2         -9.785         -100.4          61.99          46.23
     1.134              -35.48       -0.07198          22.06          55.13         -2.616         -8.995          134.2         -9.791         -100.2          61.94          46.35
     1.175              -35.46       -0.07628          22.12           55.1         -2.606         -8.997          134.1         -9.799         -100.0          61.87          46.49
     1.215              -35.44       -0.08118          22.19          55.07         -2.595         -8.999          134.0         -9.807         -99.84           61.8          46.65
     1.256              -35.42       -0.08681          22.26          55.03         -2.582         -9.002          133.9         -9.816         -99.61          61.72          46.84
     1.296               -35.4       -0.09331          22.35          54.99         -2.567         -9.005          133.8         -9.827         -99.34          61.63          47.05
     1.337              -35.37        -0.1009          22.46          54.94          -2.55         -9.008          133.6          -9.84         -99.03          61.52          47.29
     1.377              -35.34        -0.1097          22.58          54.88          -2.53         -9.012          133.5         -9.855         -98.67           61.4          47.58
     1.418              -35.31        -0.1201          22.72          54.81         -2.506         -9.017          133.3         -9.873         -98.25          61.25          47.92
     1.458              -35.26        -0.1325          22.89          54.73         -2.478         -9.022          133.0         -9.894         -97.75          61.07          48.32
     1.499              -35.21        -0.1473          23.09          54.63         -2.444         -9.029          132.8         -9.919         -97.14          60.86           48.8
     1.539              -35.15        -0.1653          23.34          54.52         -2.403         -9.036          132.4         -9.949         -96.41          60.61          49.38
      1.58              -35.07        -0.1872          23.64          54.37         -2.352         -9.046          132.0         -9.986         -95.52          60.29          50.09
      1.62              -34.97        -0.2143          24.01          54.19          -2.29         -9.058          131.5         -10.03         -94.42          59.91          50.97
     1.661              -34.86         -0.248          24.47          53.97         -2.213         -9.073          130.9         -10.09         -93.04          59.43          52.06
     1.701              -34.71        -0.2905          25.05           53.7         -2.116         -9.092          130.1         -10.16         -91.31          58.82          53.44
     1.742              -34.51        -0.3446          25.79          53.34         -1.992         -9.116          129.1         -10.25         -89.11          58.05           55.2
     1.782              -34.27        -0.4138          26.73          52.89         -1.834         -9.146          127.8         -10.37         -86.29          57.07          57.44
     1.823              -33.96        -0.5025          27.94          52.31         -1.631         -9.185          126.2         -10.52         -82.68           55.8          60.32
     1.863              -33.56        -0.6159          29.49          51.57         -1.371         -9.235          124.1         -10.71         -78.06          54.19           64.0
     1.904              -33.06        -0.7585          31.44          50.63         -1.045         -9.298          121.4         -10.95         -72.26          52.16          68.62
     1.944              -32.44        -0.9323          33.82           49.5        -0.6477         -9.375          118.2         -11.24         -65.18          49.68          74.26
     1.985              -31.73         -1.134          36.57          48.18        -0.1869         -9.464          114.5         -11.59         -56.98          46.81          80.79
     2.025              -30.96         -1.352          39.55          46.75         0.3121          -9.56          110.5         -11.95         -48.11          43.71          87.86
     2.066              -30.19          -1.57          42.53          45.33          0.811         -9.657          106.4         -12.32         -39.23           40.6          94.93
     2.106              -29.48         -1.771          45.28          44.01          1.272         -9.746          102.7         -12.66         -31.03          37.73          101.5
     2.147              -28.87         -1.945          47.65          42.87          1.669         -9.822          99.48         -12.96         -23.95          35.26          107.1
     2.187              -28.37         -2.088           49.6          41.94          1.996         -9.885          96.84          -13.2         -18.15          33.23          111.7
     2.228              -27.97         -2.201          51.15           41.2          2.255         -9.935          94.74         -13.39         -13.53          31.61          115.4
     2.268              -27.66          -2.29          52.36          40.62          2.458         -9.974           93.1         -13.54         -9.918          30.35          118.3
     2.309              -27.41         -2.359          53.31          40.16          2.616         -10.01          91.82         -13.66         -7.101          29.36          120.5
     2.349              -27.22         -2.413          54.05          39.81           2.74         -10.03          90.82         -13.75         -4.901          28.59          122.3
      2.39              -27.07         -2.455          54.63          39.53          2.837         -10.05          90.03         -13.82          -3.17          27.99          123.7
      2.43              -26.95         -2.489          55.09          39.31          2.915         -10.06           89.4         -13.88         -1.796          27.51          124.8
     2.471              -26.86         -2.516          55.46          39.14          2.977         -10.07           88.9         -13.92        -0.6938          27.12          125.6
     2.512              -26.78         -2.538          55.76          38.99          3.027         -10.08           88.5         -13.96          0.199          26.81          126.3
     2.552              -26.72         -2.556          56.01          38.87          3.068         -10.09          88.17         -13.99         0.9299          26.56          126.9
     2.593              -26.67         -2.571          56.21          38.78          3.102          -10.1          87.89         -14.01          1.534          26.34          127.4
